<?xml version="1.0" standalone="no"?>
<!DOCTYPE svg PUBLIC "-//W3C//DTD SVG 20010904//EN"
 "http://www.w3.org/TR/2001/REC-SVG-20010904/DTD/svg10.dtd">
<svg version="1.0" xmlns="http://www.w3.org/2000/svg"
 width="2048.000000pt" height="2048.000000pt" viewBox="0 0 2048.000000 2048.000000"
 preserveAspectRatio="xMidYMid meet">
<metadata>
Created by potrace 1.14, written by Peter Selinger 2001-2017
</metadata>
<g transform="translate(0.000000,2048.000000) scale(0.100000,-0.100000)"
fill="#000000" stroke="none">
<path d="M10105 19254 c-16 -2 -75 -9 -130 -15 -55 -6 -104 -15 -110 -19 -5
-4 -39 -13 -75 -20 -82 -16 -307 -88 -337 -107 -13 -9 -23 -13 -23 -10 0 10
-173 -84 -441 -238 -480 -278 -715 -414 -1324 -765 -335 -194 -713 -412 -840
-485 -245 -142 -1070 -618 -2200 -1270 -1496 -863 -1418 -817 -1517 -903 -104
-90 -357 -345 -434 -437 -96 -115 -234 -303 -234 -318 0 -3 -17 -31 -39 -63
-55 -84 -137 -248 -166 -335 -30 -86 -65 -246 -65 -295 0 -19 -4 -34 -10 -34
-7 0 -10 -1240 -10 -3700 0 -2460 3 -3700 10 -3700 6 0 10 -15 10 -32 0 -49
27 -182 56 -273 50 -161 199 -424 346 -611 26 -34 48 -66 48 -72 0 -6 9 -17
19 -24 11 -8 40 -41 65 -75 51 -68 411 -423 429 -423 6 0 25 -13 42 -29 16
-16 188 -120 380 -231 193 -111 454 -262 580 -335 127 -73 619 -358 1095 -633
476 -274 1243 -717 1705 -984 462 -267 917 -529 1010 -583 94 -54 229 -132
300 -173 72 -41 187 -108 258 -149 70 -40 187 -107 260 -150 72 -42 173 -99
222 -128 50 -28 146 -84 215 -124 155 -89 192 -106 360 -169 362 -135 779
-155 1166 -57 52 13 158 49 237 80 143 57 189 81 637 340 135 78 540 312 900
520 1040 600 3045 1758 4169 2407 674 389 665 383 927 650 146 148 282 306
309 358 9 17 20 30 25 30 6 0 10 4 10 10 0 5 34 60 76 122 129 191 225 405
254 568 7 36 14 72 17 80 3 8 5 29 4 46 -1 18 2 35 8 39 15 9 15 7401 0 7410
-6 4 -9 21 -8 39 1 17 -1 38 -4 46 -3 8 -11 42 -17 75 -36 207 -201 530 -394
770 -18 22 -35 48 -39 58 -3 9 -10 17 -15 17 -5 0 -32 30 -60 68 -56 75 -306
323 -422 419 -49 41 -235 154 -545 334 -258 150 -526 305 -595 345 -140 81
-1315 759 -1570 906 -311 179 -860 496 -1245 719 -121 70 -407 235 -635 366
-228 132 -680 393 -1005 580 -536 309 -642 368 -756 417 -57 25 -248 83 -314
95 -33 7 -69 16 -80 21 -51 22 -399 47 -490 34z m-1395 -6653 l0 -249 98 -22
c260 -60 529 -180 754 -337 l77 -54 -167 -334 c-92 -184 -170 -335 -174 -335
-4 0 -41 24 -82 54 -299 215 -624 315 -929 286 -128 -12 -202 -31 -292 -74
-183 -87 -266 -249 -235 -460 15 -106 47 -175 110 -235 100 -96 231 -145 642
-241 414 -97 592 -162 772 -281 120 -79 209 -170 280 -288 112 -186 156 -372
156 -666 0 -368 -100 -650 -309 -869 -159 -166 -396 -296 -648 -356 l-53 -12
0 -254 0 -254 -400 0 -400 0 0 244 0 243 -52 7 c-102 13 -285 58 -434 107
-279 92 -537 236 -639 357 l-26 31 182 323 c100 178 184 325 185 327 2 2 34
-21 72 -52 210 -170 435 -275 704 -329 96 -20 144 -23 318 -23 178 0 216 3
292 22 241 61 379 194 410 396 23 154 -20 299 -114 381 -100 87 -214 128 -552
197 -297 60 -519 116 -621 156 -414 162 -617 427 -665 871 -16 140 -8 394 15
512 51 257 143 438 309 606 143 144 323 249 531 309 l80 23 3 248 c1 137 4
255 7 262 3 9 93 12 400 12 l395 0 0 -249z m5010 -4696 l0 -225 -1360 0 -1360
0 0 225 0 225 1360 0 1360 0 0 -225z"/>
</g>
</svg>
